External Loads File
version=1
nRows=62
nColumns=13
Range=5.000000e-03-10 seconds
endheader
time 	forceRightX 	forceRightY 	forceRightZ 	pointRightX 	pointRightY 	pointRightZ 	forceLeftX 	forceLeftY 	forceLeftZ 	pointLeftX 	pointLeftY 	pointLeftZ 		
7.505000 -86.809843 338.829124 -0.000000 0.335127 0.310552 -0.103275 31.557209 -32.076906 -0.000000 0.048886 0.308991 -0.340901
7.510000 -87.528332 364.306622 -0.000000 0.332831 0.299738 -0.103673 31.002469 -32.981337 -0.000000 0.050791 0.319000 -0.340852
7.515000 -85.985084 390.307324 -0.000000 0.330063 0.288716 -0.103687 30.476047 -32.761198 -0.000000 0.053179 0.328889 -0.340784
7.520000 -82.501921 416.522681 -0.000000 0.326893 0.278089 -0.103744 30.173140 -31.429912 -0.000000 0.056106 0.338702 -0.340786
7.525000 -76.043669 442.855388 -0.000000 0.323242 0.267531 -0.103810 30.196812 -29.194829 -0.000000 0.059695 0.348492 -0.340939
7.530000 -66.707886 468.888963 -0.000000 0.319061 0.257177 -0.103854 30.691277 -26.259470 -0.000000 0.063774 0.358162 -0.340948
7.535000 -54.593230 494.170844 -0.000000 0.314571 0.247138 -0.104237 31.706050 -22.866356 -0.000000 0.068464 0.367752 -0.340998
7.540000 -38.826053 518.330936 -0.000000 0.309389 0.236957 -0.104226 33.184068 -19.329903 -0.000000 0.073725 0.377151 -0.341007
7.545000 -21.850958 540.786488 -0.000000 0.303854 0.227680 -0.104188 35.167349 -15.773963 -0.000000 0.079412 0.386342 -0.341090
7.550000 -3.106027 561.384004 -0.000000 0.297865 0.218847 -0.104197 37.530352 -12.541575 -0.000000 0.085514 0.395365 -0.341081
7.555000 17.305647 579.993294 -0.000000 0.291530 0.210300 -0.103727 40.100773 -9.957392 -0.000000 0.092170 0.404134 -0.341257
7.560000 39.495330 596.544772 -0.000000 0.284597 0.202221 -0.103364 42.570226 -8.372788 -0.000000 0.099304 0.412983 -0.341275
7.565000 61.023133 611.221909 -0.000000 0.277575 0.194687 -0.103416 44.536002 -7.920637 -0.000000 0.106795 0.421217 -0.341242
7.570000 82.470295 624.115403 -0.000000 0.270291 0.187610 -0.103577 45.501123 -8.832179 -0.000000 0.114733 0.428943 -0.341268
7.575000 103.562950 635.342969 -0.000000 0.262799 0.181131 -0.103723 45.042730 -11.073945 -0.000000 0.122791 0.436910 -0.341013
7.580000 124.176801 644.971209 -0.000000 0.255011 0.175207 -0.103912 42.892904 -14.354897 -0.000000 0.131318 0.444178 -0.341278
7.585000 143.847374 653.064196 -0.000000 0.246940 0.169668 -0.104026 39.012730 -18.098538 -0.000000 0.140066 0.450686 -0.341049
7.590000 162.647145 659.475946 -0.000000 0.238665 0.164720 -0.104068 33.598106 -21.569468 -0.000000 0.149050 0.456902 -0.340907
7.595000 179.861014 664.130046 -0.000000 0.230218 0.160364 -0.103975 27.084957 -23.922890 -0.000000 0.158092 0.462601 -0.340739
7.600000 195.787747 666.636027 -0.000000 0.221537 0.156517 -0.103788 19.981947 -24.457827 -0.000000 0.167356 0.467526 -0.340505
7.605000 209.963413 666.812723 -0.000000 0.212746 0.153257 -0.103553 12.793553 -22.656827 -0.000000 0.176781 0.471554 -0.340340
7.610000 222.191521 664.484683 -0.000000 0.203847 0.150610 -0.103301 5.904738 -18.294547 -0.000000 0.186276 0.475048 -0.340017
7.615000 232.682838 659.449389 -0.000000 0.194829 0.148628 -0.102969 -0.441273 -11.439796 -0.000000 0.195904 0.477701 -0.340346
7.620000 241.360914 651.694712 -0.000000 0.185766 0.147169 -0.102647 -6.125099 -2.450656 -0.000000 0.205731 0.479583 -0.340236
7.625000 247.882180 641.308357 -0.000000 0.176676 0.146414 -0.102303 -11.176786 8.019749 -0.000000 0.215463 0.480745 -0.340110
7.630000 252.357575 628.041089 -0.000000 0.167554 0.146315 -0.101866 -15.781600 19.092339 -0.000000 0.225022 0.481129 -0.339410
7.635000 255.081345 611.258522 -0.000000 0.158638 0.146818 -0.101210 -20.228310 29.811119 -0.000000 0.234641 0.480966 -0.339633
7.640000 255.714086 590.272387 -0.000000 0.149777 0.147818 -0.100683 -24.876195 39.305497 -0.000000 0.243998 0.480119 -0.339742
7.645000 254.343236 564.047497 -0.000000 0.141010 0.149809 -0.100364 -30.039437 46.983800 -0.000000 0.253090 0.478690 -0.339913
7.650000 250.638791 531.773951 -0.000000 0.132450 0.152745 -0.100093 -35.966313 52.578209 -0.000000 0.262041 0.476795 -0.339862
7.655000 243.891821 493.101436 -0.000000 0.124141 0.156072 -0.099952 -42.809269 56.087833 -0.000000 0.270706 0.473951 -0.340101
7.660000 233.534444 448.126906 -0.000000 0.116170 0.160164 -0.099864 -50.569542 57.715562 -0.000000 0.279021 0.470376 -0.340316
7.665000 219.274413 397.491141 -0.000000 0.108633 0.165193 -0.099914 -59.108467 57.831030 -0.000000 0.286974 0.466006 -0.340641
7.670000 200.420212 342.813219 -0.000000 0.101619 0.170698 -0.100070 -68.302734 56.800102 -0.000000 0.294433 0.461073 -0.340840
7.675000 177.373391 285.808927 -0.000000 0.095037 0.176652 -0.100228 -77.908544 55.111569 -0.000000 0.301387 0.455561 -0.341143
7.680000 150.812357 228.545787 -0.000000 0.089008 0.183205 -0.100438 -87.719587 53.288134 -0.000000 0.307900 0.449492 -0.341700
7.685000 121.524878 173.367549 -0.000000 0.083642 0.189959 -0.100623 -97.633639 51.780277 -0.000000 0.313816 0.442756 -0.342256
7.690000 91.184930 122.096741 -0.000000 0.078650 0.197127 -0.100764 -107.414444 51.329973 -0.000000 0.319374 0.435210 -0.342712
7.695000 60.929645 76.681095 -0.000000 0.074149 0.204542 -0.100820 -117.074545 52.184486 -0.000000 0.324360 0.427757 -0.343164
7.700000 32.601028 37.941417 -0.000000 0.070041 0.212304 -0.100828 -126.324157 55.193401 -0.000000 0.328835 0.419240 -0.343725
7.705000 7.322181 6.390516 -0.000000 0.066251 0.220186 -0.100804 -135.173615 60.547645 -0.000000 0.332650 0.410401 -0.344361
7.710000 -13.938749 -18.257930 -0.000000 0.062656 0.228389 -0.100232 -143.555860 68.680271 -0.000000 0.335984 0.401461 -0.344546
7.715000 -30.746696 -36.640987 -0.000000 0.058919 0.236940 -0.100751 -151.403336 80.092485 -0.000000 0.338653 0.392023 -0.344848
7.720000 -43.036134 -49.622892 -0.000000 0.056062 0.246063 -0.100619 -158.815154 94.881556 -0.000000 0.340677 0.382329 -0.345060
7.725000 -51.164667 -58.019581 -0.000000 0.053565 0.255481 -0.100503 -165.600908 113.456593 -0.000000 0.342096 0.371978 -0.345228
7.730000 -55.613193 -62.683584 -0.000000 0.051759 0.265337 -0.100315 -171.727560 135.705453 -0.000000 0.342930 0.361540 -0.345396
7.735000 -57.098190 -64.259716 -0.000000 0.050252 0.275335 -0.100369 -176.948397 161.611071 -0.000000 0.343066 0.350800 -0.345413
7.740000 -56.310846 -63.276578 -0.000000 0.049436 0.285447 -0.100299 -181.114259 190.811469 -0.000000 0.342640 0.339967 -0.345501
7.745000 -53.888563 -60.096838 -0.000000 0.049097 0.295673 -0.100475 -183.927436 222.940730 -0.000000 0.341565 0.329065 -0.345499
7.750000 -50.312746 -55.027287 -0.000000 0.049284 0.306131 -0.100530 -184.912477 257.636933 -0.000000 0.340168 0.318040 -0.345873
7.755000 -45.759944 -48.536954 -0.000000 0.050157 0.316471 -0.100535 -184.198937 294.039558 -0.000000 0.338076 0.307033 -0.346102
7.760000 -40.473943 -40.982200 -0.000000 0.051509 0.327088 -0.100570 -181.130621 331.846127 -0.000000 0.335417 0.296049 -0.346024
7.765000 -34.524942 -32.814686 -0.000000 0.053538 0.337755 -0.100655 -175.729658 370.321416 -0.000000 0.332323 0.285171 -0.346021
7.770000 -27.990696 -24.378657 -0.000000 0.056111 0.348216 -0.100798 -168.107080 408.823359 -0.000000 0.328780 0.274382 -0.345848
7.775000 -20.968582 -15.885974 -0.000000 0.059246 0.358662 -0.100901 -157.989727 446.987222 -0.000000 0.324707 0.263799 -0.345822
7.780000 -13.514457 -7.498044 -0.000000 0.063001 0.369027 -0.101041 -145.403756 484.373769 -0.000000 0.320308 0.253459 -0.345599
7.785000 -5.690309 0.676301 -0.000000 0.067421 0.379019 -0.101288 -130.449615 520.571283 -0.000000 0.315378 0.243331 -0.345479
7.790000 2.411799 8.538814 -0.000000 0.072323 0.388795 -0.101338 -113.224159 555.211973 -0.000000 0.309903 0.233629 -0.345262
7.795000 10.652414 15.963929 -0.000000 0.077728 0.398271 -0.101619 -93.803481 587.972320 -0.000000 0.303995 0.224272 -0.344965
7.800000 18.807887 22.782313 -0.000000 0.083715 0.407329 -0.101578 -72.462006 618.551795 -0.000000 0.297694 0.215259 -0.344725
7.805000 26.549748 28.773238 -0.000000 0.090063 0.416024 -0.101767 -49.450887 646.735213 -0.000000 0.291011 0.206514 -0.344668
7.810000 33.442897 33.707803 -0.000000 0.096873 0.424451 -0.101795 -25.387333 672.352443 -0.000000 0.284023 0.198368 -0.344574
